<svg width="21" height="21" viewBox="0 0 21 21" fill="none" xmlns="http://www.w3.org/2000/svg">
<path d="M6.2444 0.5H14.6444C17.8444 0.5 20.4444 3.1 20.4444 6.3V14.7C20.4444 16.2383 19.8333 17.7135 18.7456 18.8012C17.6579 19.8889 16.1827 20.5 14.6444 20.5H6.2444C3.0444 20.5 0.444397 17.9 0.444397 14.7V6.3C0.444397 4.76174 1.05547 3.28649 2.14318 2.19878C3.23089 1.11107 4.70614 0.5 6.2444 0.5ZM6.0444 2.5C5.08962 2.5 4.17394 2.87928 3.49881 3.55442C2.82368 4.22955 2.4444 5.14522 2.4444 6.1V14.9C2.4444 16.89 4.0544 18.5 6.0444 18.5H14.8444C15.7992 18.5 16.7149 18.1207 17.39 17.4456C18.0651 16.7705 18.4444 15.8548 18.4444 14.9V6.1C18.4444 4.11 16.8344 2.5 14.8444 2.5H6.0444ZM15.6944 4C16.0259 4 16.3439 4.1317 16.5783 4.36612C16.8127 4.60054 16.9444 4.91848 16.9444 5.25C16.9444 5.58152 16.8127 5.89946 16.5783 6.13388C16.3439 6.3683 16.0259 6.5 15.6944 6.5C15.3629 6.5 15.0449 6.3683 14.8105 6.13388C14.5761 5.89946 14.4444 5.58152 14.4444 5.25C14.4444 4.91848 14.5761 4.60054 14.8105 4.36612C15.0449 4.1317 15.3629 4 15.6944 4ZM10.4444 5.5C11.7705 5.5 13.0422 6.02678 13.9799 6.96447C14.9176 7.90215 15.4444 9.17392 15.4444 10.5C15.4444 11.8261 14.9176 13.0979 13.9799 14.0355C13.0422 14.9732 11.7705 15.5 10.4444 15.5C9.11831 15.5 7.84654 14.9732 6.90886 14.0355C5.97118 13.0979 5.4444 11.8261 5.4444 10.5C5.4444 9.17392 5.97118 7.90215 6.90886 6.96447C7.84654 6.02678 9.11831 5.5 10.4444 5.5ZM10.4444 7.5C9.64875 7.5 8.88569 7.81607 8.32308 8.37868C7.76047 8.94129 7.4444 9.70435 7.4444 10.5C7.4444 11.2956 7.76047 12.0587 8.32308 12.6213C8.88569 13.1839 9.64875 13.5 10.4444 13.5C11.24 13.5 12.0031 13.1839 12.5657 12.6213C13.1283 12.0587 13.4444 11.2956 13.4444 10.5C13.4444 9.70435 13.1283 8.94129 12.5657 8.37868C12.0031 7.81607 11.24 7.5 10.4444 7.5Z" fill="#FFDEC9"/>
</svg>
