<svg width="25" height="14" viewBox="0 0 25 14" fill="none" xmlns="http://www.w3.org/2000/svg">
<path d="M4.85712 4.50001C5.12233 4.50001 5.37669 4.60536 5.56422 4.7929C5.75176 4.98044 5.85712 5.23479 5.85712 5.50001V12.5C5.85712 12.7652 5.75176 13.0196 5.56422 13.2071C5.37669 13.3947 5.12233 13.5 4.85712 13.5C4.5919 13.5 4.33755 13.3947 4.15001 13.2071C3.96247 13.0196 3.85712 12.7652 3.85712 12.5V5.50001C3.85712 5.23479 3.96247 4.98044 4.15001 4.7929C4.33755 4.60536 4.5919 4.50001 4.85712 4.50001ZM7.85712 5.50001C8.12233 5.50001 8.37669 5.60536 8.56422 5.7929C8.75176 5.98044 8.85712 6.23479 8.85712 6.50001V12.5C8.85712 12.7652 8.75176 13.0196 8.56422 13.2071C8.37669 13.3947 8.12233 13.5 7.85712 13.5C7.5919 13.5 7.33755 13.3947 7.15001 13.2071C6.96247 13.0196 6.85712 12.7652 6.85712 12.5V6.50001C6.85712 6.23479 6.96247 5.98044 7.15001 5.7929C7.33755 5.60536 7.5919 5.50001 7.85712 5.50001ZM10.8571 1.50001C11.1223 1.50001 11.3767 1.60536 11.5642 1.7929C11.7518 1.98044 11.8571 2.23479 11.8571 2.50001V12.5C11.8571 12.7652 11.7518 13.0196 11.5642 13.2071C11.3767 13.3947 11.1223 13.5 10.8571 13.5C10.5919 13.5 10.3375 13.3947 10.15 13.2071C9.96247 13.0196 9.85712 12.7652 9.85712 12.5V2.50001C9.85712 2.23479 9.96247 1.98044 10.15 1.7929C10.3375 1.60536 10.5919 1.50001 10.8571 1.50001ZM15.8571 0.500006C17.4095 0.499949 18.9015 1.10157 20.0196 2.17847C21.1377 3.25537 21.7949 4.72372 21.8531 6.27501L21.8561 6.53501C22.7167 6.65765 23.5009 7.09616 24.0559 7.76517C24.611 8.43417 24.8972 9.28579 24.8589 10.1542C24.8206 11.0227 24.4605 11.8458 23.8487 12.4633C23.2369 13.0808 22.4172 13.4486 21.5491 13.495L21.3571 13.5H17.8561C17.6012 13.4997 17.3561 13.4021 17.1707 13.2272C16.9854 13.0522 16.8739 12.8131 16.8589 12.5586C16.844 12.3042 16.9268 12.0536 17.0904 11.8582C17.254 11.6627 17.486 11.5371 17.7391 11.507L17.8571 11.5H21.3041L21.4421 11.498C21.8022 11.4786 22.1432 11.3302 22.4028 11.0799C22.6623 10.8296 22.823 10.4942 22.8554 10.1351C22.8879 9.77595 22.7898 9.41717 22.5793 9.12442C22.3688 8.83168 22.0599 8.62457 21.7091 8.54101L21.5741 8.51501L19.8041 8.26301L19.8571 6.47601L19.8531 6.30001C19.8035 5.30938 19.3876 4.37252 18.6862 3.67125C17.9847 2.96999 17.0478 2.55435 16.0571 2.50501L15.8571 2.50001C15.5891 2.50001 15.3261 2.52601 15.0691 2.57701L14.8571 2.62601V12.5C14.8571 12.7449 14.7672 12.9813 14.6044 13.1644C14.4416 13.3474 14.2174 13.4643 13.9741 13.493L13.8571 13.5C13.5919 13.5 13.3375 13.3947 13.15 13.2071C12.9625 13.0196 12.8571 12.7652 12.8571 12.5V1.30301C13.7688 0.775504 14.8038 0.498473 15.8571 0.500006ZM1.85712 6.50001C2.12233 6.50001 2.37669 6.60536 2.56422 6.7929C2.75176 6.98044 2.85712 7.23479 2.85712 7.50001V11.5C2.85712 11.7652 2.75176 12.0196 2.56422 12.2071C2.37669 12.3947 2.12233 12.5 1.85712 12.5C1.5919 12.5 1.33755 12.3947 1.15001 12.2071C0.962474 12.0196 0.857117 11.7652 0.857117 11.5V7.50001C0.857117 7.23479 0.962474 6.98044 1.15001 6.7929C1.33755 6.60536 1.5919 6.50001 1.85712 6.50001Z" fill="#FFDEC9"/>
</svg>
