<svg width="24" height="25" viewBox="0 0 24 25" fill="none" xmlns="http://www.w3.org/2000/svg">
<path d="M15.3499 6.04999C14.5901 6.04986 13.8605 6.34797 13.3182 6.8802C12.7758 7.41243 12.4641 8.13626 12.4499 8.89599L12.4219 10.471C12.4204 10.5556 12.401 10.639 12.365 10.7156C12.329 10.7923 12.2772 10.8604 12.2129 10.9155C12.1487 10.9707 12.0735 11.0116 11.9924 11.0357C11.9112 11.0597 11.8258 11.0663 11.7419 11.055L10.1799 10.842C8.12692 10.562 6.15892 9.61699 4.26992 8.04399C3.67292 11.354 4.83992 13.647 7.65292 15.416L9.39992 16.514C9.48279 16.5661 9.55164 16.6377 9.60047 16.7226C9.64931 16.8074 9.67665 16.9029 9.6801 17.0007C9.68355 17.0986 9.66301 17.1957 9.62028 17.2838C9.57754 17.3719 9.51391 17.4482 9.43492 17.506L7.84292 18.67C8.78992 18.73 9.68892 18.688 10.4349 18.54C15.1529 17.598 18.2899 14.048 18.2899 8.19199C18.2899 7.71399 17.2769 6.04999 15.3499 6.04999ZM10.4499 8.85999C10.4674 7.89604 10.7688 6.95866 11.3165 6.16521C11.8642 5.37177 12.6337 4.75751 13.5288 4.39936C14.424 4.04121 15.4048 3.95507 16.3487 4.15174C17.2925 4.34841 18.1573 4.81914 18.8349 5.50499C19.5459 5.49999 20.1509 5.67999 21.5029 4.85899C21.1689 6.49899 21.0029 7.21199 20.2899 8.19099C20.2899 15.832 15.5929 19.549 10.8259 20.5C7.55892 21.152 2.80592 20.081 1.44592 18.658C2.13892 18.605 4.95892 18.302 6.58892 17.108C5.20892 16.198 -0.279077 12.968 3.32792 4.28599C5.02092 6.26299 6.73792 7.60799 8.47792 8.32299C9.63492 8.79799 9.91992 8.78799 10.4509 8.86099L10.4499 8.85999Z" fill="#FFDEC9"/>
</svg>
